{
	"asset":{
		"generator":"Khronos glTF Blender I/O v4.3.47",
		"version":"2.0"
	},
	"scene":0,
	"scenes":[
		{
			"name":"Scene",
			"nodes":[
				0
			]
		}
	],
	"nodes":[
		{
			"mesh":0,
			"name":"Torus"
		}
	],
	"materials":[
		{
			"doubleSided":true,
			"name":"Material.001",
			"pbrMetallicRoughness":{
				"baseColorTexture":{
					"index":0
				},
				"metallicFactor":0,
				"metallicRoughnessTexture":{
					"index":1
				}
			}
		}
	],
	"meshes":[
		{
			"name":"Torus",
			"primitives":[
				{
					"attributes":{
						"POSITION":0,
						"NORMAL":1,
						"TEXCOORD_0":2
					},
					"indices":3,
					"material":0
				}
			]
		}
	],
	"textures":[
		{
			"sampler":0,
			"source":0
		},
		{
			"sampler":0,
			"source":1
		}
	],
	"images":[
		{
			"mimeType":"image/png",
			"name":"Material Base Color",
			"uri":"Material%20Base%20Color.png"
		},
		{
			"mimeType":"image/png",
			"name":"Material Roughness",
			"uri":"Material%20Roughness.png"
		}
	],
	"accessors":[
		{
			"bufferView":0,
			"componentType":5126,
			"count":1570,
			"max":[
				1.4785884618759155,
				1.3780790567398071,
				1.384002685546875
			],
			"min":[
				-1.4051519632339478,
				-0.12583521008491516,
				-1.6808607578277588
			],
			"type":"VEC3"
		},
		{
			"bufferView":1,
			"componentType":5126,
			"count":1570,
			"type":"VEC3"
		},
		{
			"bufferView":2,
			"componentType":5126,
			"count":1570,
			"type":"VEC2"
		},
		{
			"bufferView":3,
			"componentType":5123,
			"count":5502,
			"type":"SCALAR"
		}
	],
	"bufferViews":[
		{
			"buffer":0,
			"byteLength":18840,
			"byteOffset":0,
			"target":34962
		},
		{
			"buffer":0,
			"byteLength":18840,
			"byteOffset":18840,
			"target":34962
		},
		{
			"buffer":0,
			"byteLength":12560,
			"byteOffset":37680,
			"target":34962
		},
		{
			"buffer":0,
			"byteLength":11004,
			"byteOffset":50240,
			"target":34963
		}
	],
	"samplers":[
		{
			"magFilter":9729,
			"minFilter":9987
		}
	],
	"buffers":[
		{
			"byteLength":61244,
			"uri":"graffiti.bin"
		}
	]
}
