{
	"asset":{
		"generator":"Khronos glTF Blender I/O v4.3.47",
		"version":"2.0"
	},
	"scene":0,
	"scenes":[
		{
			"name":"Scene",
			"nodes":[
				2
			]
		}
	],
	"nodes":[
		{
			"mesh":0,
			"name":"Cone",
			"translation":[
				0,
				0,
				-4.031347274780273
			]
		},
		{
			"children":[
				0
			],
			"mesh":1,
			"name":"Icosphere",
			"translation":[
				0,
				0,
				-3.9161837100982666
			]
		},
		{
			"children":[
				1
			],
			"mesh":2,
			"name":"Cube"
		}
	],
	"materials":[
		{
			"doubleSided":true,
			"name":"Material.002",
			"pbrMetallicRoughness":{
				"baseColorTexture":{
					"index":0
				},
				"metallicFactor":0,
				"metallicRoughnessTexture":{
					"index":1
				}
			}
		}
	],
	"meshes":[
		{
			"name":"Cone",
			"primitives":[
				{
					"attributes":{
						"POSITION":0,
						"NORMAL":1,
						"TEXCOORD_0":2
					},
					"indices":3
				}
			]
		},
		{
			"name":"Icosphere",
			"primitives":[
				{
					"attributes":{
						"POSITION":4,
						"NORMAL":5,
						"TEXCOORD_0":6
					},
					"indices":7
				}
			]
		},
		{
			"name":"Cube.001",
			"primitives":[
				{
					"attributes":{
						"POSITION":8,
						"NORMAL":9,
						"TEXCOORD_0":10
					},
					"indices":11,
					"material":0
				}
			]
		}
	],
	"textures":[
		{
			"sampler":0,
			"source":0
		},
		{
			"sampler":0,
			"source":1
		}
	],
	"images":[
		{
			"mimeType":"image/png",
			"name":"Cube Base Color",
			"uri":"Cube%20Base%20Color.png"
		},
		{
			"mimeType":"image/png",
			"name":"Material",
			"uri":"Material.png"
		}
	],
	"accessors":[
		{
			"bufferView":0,
			"componentType":5126,
			"count":65,
			"max":[
				1,
				1,
				1
			],
			"min":[
				-1,
				-1,
				-1
			],
			"type":"VEC3"
		},
		{
			"bufferView":1,
			"componentType":5126,
			"count":65,
			"type":"VEC3"
		},
		{
			"bufferView":2,
			"componentType":5126,
			"count":65,
			"type":"VEC2"
		},
		{
			"bufferView":3,
			"componentType":5123,
			"count":186,
			"type":"SCALAR"
		},
		{
			"bufferView":4,
			"componentType":5126,
			"count":63,
			"max":[
				0.9510578513145447,
				1,
				0.9999999403953552
			],
			"min":[
				-0.9510578513145447,
				-1,
				-0.9999999403953552
			],
			"type":"VEC3"
		},
		{
			"bufferView":5,
			"componentType":5126,
			"count":63,
			"type":"VEC3"
		},
		{
			"bufferView":6,
			"componentType":5126,
			"count":63,
			"type":"VEC2"
		},
		{
			"bufferView":7,
			"componentType":5123,
			"count":240,
			"type":"SCALAR"
		},
		{
			"bufferView":8,
			"componentType":5126,
			"count":773,
			"max":[
				1.800459861755371,
				1.865593433380127,
				2.194138526916504
			],
			"min":[
				-2.0490572452545166,
				-2.91528058052063,
				-1.9608235359191895
			],
			"type":"VEC3"
		},
		{
			"bufferView":9,
			"componentType":5126,
			"count":773,
			"type":"VEC3"
		},
		{
			"bufferView":10,
			"componentType":5126,
			"count":773,
			"type":"VEC2"
		},
		{
			"bufferView":11,
			"componentType":5123,
			"count":4626,
			"type":"SCALAR"
		}
	],
	"bufferViews":[
		{
			"buffer":0,
			"byteLength":780,
			"byteOffset":0,
			"target":34962
		},
		{
			"buffer":0,
			"byteLength":780,
			"byteOffset":780,
			"target":34962
		},
		{
			"buffer":0,
			"byteLength":520,
			"byteOffset":1560,
			"target":34962
		},
		{
			"buffer":0,
			"byteLength":372,
			"byteOffset":2080,
			"target":34963
		},
		{
			"buffer":0,
			"byteLength":756,
			"byteOffset":2452,
			"target":34962
		},
		{
			"buffer":0,
			"byteLength":756,
			"byteOffset":3208,
			"target":34962
		},
		{
			"buffer":0,
			"byteLength":504,
			"byteOffset":3964,
			"target":34962
		},
		{
			"buffer":0,
			"byteLength":480,
			"byteOffset":4468,
			"target":34963
		},
		{
			"buffer":0,
			"byteLength":9276,
			"byteOffset":4948,
			"target":34962
		},
		{
			"buffer":0,
			"byteLength":9276,
			"byteOffset":14224,
			"target":34962
		},
		{
			"buffer":0,
			"byteLength":6184,
			"byteOffset":23500,
			"target":34962
		},
		{
			"buffer":0,
			"byteLength":9252,
			"byteOffset":29684,
			"target":34963
		}
	],
	"samplers":[
		{
			"magFilter":9729,
			"minFilter":9987
		}
	],
	"buffers":[
		{
			"byteLength":38936,
			"uri":"scene.bin"
		}
	]
}
